<?xml version="1.0" encoding="UTF-8" standalone="no"?>
<!-- Created with Inkscape (http://www.inkscape.org/) -->

<svg
   width="800mm"
   height="180mm"
   viewBox="0 0 800.00002 180"
   version="1.1"
   id="svg1"
   xml:space="preserve"
   xmlns:xlink="http://www.w3.org/1999/xlink"
   xmlns="http://www.w3.org/2000/svg"
   xmlns:svg="http://www.w3.org/2000/svg"><defs
     id="defs1"><linearGradient
       id="linearGradient1"><stop
         style="stop-color:#636363;stop-opacity:1;"
         offset="0.33393106"
         id="stop1" /><stop
         style="stop-color:#ffffff;stop-opacity:1;"
         offset="0.63611776"
         id="stop2" /></linearGradient><linearGradient
       id="linearGradient34"><stop
         style="stop-color:#1661b9;stop-opacity:1;"
         offset="0.23843344"
         id="stop34" /><stop
         style="stop-color:#1661b9;stop-opacity:0.19941716;"
         offset="1"
         id="stop35" /></linearGradient><linearGradient
       id="swatch28"><stop
         style="stop-color:#808080;stop-opacity:1;"
         offset="0"
         id="stop28" /></linearGradient><linearGradient
       id="swatch16"><stop
         style="stop-color:#ff0144;stop-opacity:1;"
         offset="0"
         id="stop16" /></linearGradient><linearGradient
       id="swatch4"><stop
         style="stop-color:#808080;stop-opacity:1;"
         offset="0"
         id="stop4" /></linearGradient><linearGradient
       xlink:href="#linearGradient34"
       id="linearGradient35"
       x1="-171.53008"
       y1="178.40059"
       x2="-40.378399"
       y2="178.40059"
       gradientUnits="userSpaceOnUse"
       gradientTransform="translate(89.958336,-42.862502)" /><linearGradient
       xlink:href="#linearGradient1"
       id="linearGradient2"
       x1="-27.665512"
       y1="-117.92648"
       x2="-27.665512"
       y2="382.19794"
       gradientUnits="userSpaceOnUse"
       gradientTransform="matrix(1.600785,0,0,1,16.621023,0)" /></defs><g
     id="layer1"
     transform="translate(-15.23655,-69.278888)"
     style="display:inline;opacity:1"><g
       id="g21"
       transform="translate(442.90206,5.9970696)"><rect
         style="display:inline;fill:#ffffff;stroke-width:2"
         id="rect21"
         width="800.59161"
         height="43.178791"
         x="-427.9613"
         y="200.10303" /><rect
         style="display:inline;fill:url(#linearGradient2);stroke-width:2.00001"
         id="rect21-3"
         width="800.59167"
         height="137.70781"
         x="-427.96133"
         y="63.281822" /><path
         style="display:inline;fill:#000000;stroke-width:1"
         d="m -44.428863,238.08575 c -3.370117,-0.60118 -5.875657,-3.00834 -6.677587,-6.4154 -0.43997,-1.86924 -0.44573,-8.46509 -0.009,-10.14926 0.43856,-1.69071 1.72906,-3.65158 3.08414,-4.68627 1.626647,-1.24203 3.417947,-1.68089 6.410844,-1.57061 2.10776,0.0776 2.70731,0.19828 3.90969,0.78655 1.621367,0.79327 2.889857,2.1511 3.865637,4.13791 0.66241,1.3488 0.6751,1.46303 0.66384,5.97494 -0.007,2.52991 -0.082,4.97364 -0.16835,5.4305 -0.4748,2.51436 -2.83275,5.33903 -5.105207,6.11571 -1.48359,0.50705 -4.259787,0.68175 -5.974147,0.37593 z m 3.901767,-5.76047 c 1.09319,-1.11813 1.22572,-1.79807 1.17685,-6.03736 -0.0467,-4.05301 -0.27975,-4.92419 -1.53769,-5.74841 -0.76313,-0.50002 -2.413297,-0.34095 -3.122667,0.30102 -0.91116,0.8246 -1.2828,2.85269 -1.17544,6.41467 0.0784,2.59867 0.1974,3.46087 0.58723,4.25221 0.88458,1.79568 2.7495,2.17027 4.071717,0.81787 z m 14.692311,5.69499 c -1.944437,-0.45405 -3.086707,-1.06799 -4.124737,-2.21698 -1.288777,-1.42652 -1.872157,-2.91973 -2.027787,-5.19028 -0.18498,-2.69902 -0.1728,-2.70893 3.331407,-2.70893 3.114937,0 2.936307,-0.0997 3.187187,1.77894 0.26558,1.98858 1.70395,3.01257 3.57577,2.54563 1.04642,-0.26103 2.025527,-1.53388 2.025527,-2.63319 0,-1.63277 -0.934867,-2.50031 -5.328917,-4.94519 -2.432987,-1.35375 -4.778977,-3.49407 -5.748847,-5.24489 -0.676027,-1.22037 -0.732127,-1.51474 -0.725847,-3.80899 0.006,-1.99923 0.11075,-2.71419 0.537277,-3.64897 0.75147,-1.64685 2.38329,-3.31319 4.02024,-4.10529 1.223077,-0.59181 1.769807,-0.69105 4.262417,-0.77358 2.491707,-0.0825 3.048197,-0.0237 4.328037,0.45728 1.73888,0.65348 3.311637,2.11615 4.235217,3.93875 0.78958,1.55816 1.28494,4.58372 0.91054,5.56149 l -0.26181,0.68377 h -2.757547 c -3.32893,0 -3.7194,-0.15884 -3.7194,-1.51295 0,-1.15136 -0.538457,-2.33677 -1.229437,-2.70658 -0.2631,-0.1408 -0.94187,-0.256 -1.50839,-0.256 -1.44162,0 -2.48362,1.03483 -2.48362,2.46656 0,1.44796 1.08033,2.52638 4.62914,4.62095 4.578667,2.70239 5.629804,3.56224 6.511324,5.3263 0.93516,1.87143 1.19102,3.69865 0.78999,5.64163 -0.59745,2.89463 -2.252497,5.05968 -4.711387,6.16316 -1.80746,0.81113 -5.507357,1.08319 -7.716347,0.56736 z m -65.744941,-0.53864 c -1.7984,-0.73934 -3.403037,-2.2625 -4.170287,-3.95856 -0.52834,-1.16793 -0.57982,-1.66976 -0.65344,-6.37126 -0.0949,-6.05848 0.13469,-7.01863 2.225057,-9.30582 1.79387,-1.96278 3.44367,-2.70283 6.293947,-2.82325 3.05804,-0.12918 4.595087,0.43664 6.323597,2.32793 1.81732,1.98843 2.33303,3.51305 2.46336,7.28245 0.0642,1.85618 0.009,3.1673 -0.14169,3.31717 -0.14071,0.14071 -2.62364,0.30799 -5.744927,0.38704 l -5.497137,0.13923 9.5e-4,0.77048 c 0.004,2.29447 1.05974,3.62985 2.869397,3.62985 1.06448,0 1.64859,-0.43714 2.4768,-1.85359 0.21048,-0.35998 0.68677,-0.43475 2.983677,-0.46843 l 2.73322,-0.04 -0.0534,1.29627 c -0.10381,2.52211 -2.04058,5.06435 -4.49545,5.90081 -0.736877,0.25108 -2.011427,0.3844 -3.638447,0.38056 -2.074977,-0.005 -2.756517,-0.10961 -3.975717,-0.61081 z m 6.291907,-14.73683 c -0.23821,-1.76058 -0.99223,-2.54857 -2.43871,-2.54857 -1.2124,0 -2.162757,0.73799 -2.496117,1.93828 -0.52893,1.90446 -0.50188,1.92115 3.242907,2.00018 l 1.88535,0.0397 z m 14.283051,15.12697 c -1.11705,-0.28301 -2.938577,-1.39752 -3.545837,-2.16953 -1.06794,-1.35767 -1.26087,-2.76972 -1.26087,-9.22883 v -6.06459 l -1.30535,0.0392 c -0.71796,0.0216 -1.44959,0.0297 -1.62585,0.018 -0.241397,-0.016 -0.302747,-0.55807 -0.248637,-2.1968 l 0.0718,-2.17559 1.429667,-0.0746 1.42969,-0.0746 v -2.85476 c 0,-2.06654 0.0858,-2.88141 0.3108,-2.95133 0.17094,-0.0531 1.44538,-0.16576 2.832087,-0.25033 3.41936,-0.20855 3.43845,-0.18858 3.24921,3.39845 l -0.14153,2.68279 h 1.922107 c 1.16346,0 2.03989,0.11776 2.22049,0.29836 0.30972,0.30974 0.41988,3.32254 0.14744,4.03251 -0.12103,0.31541 -0.5642,0.3933 -2.23776,0.3933 h -2.086837 l 0.014,4.78633 c 0.009,3.02363 0.12333,5.10442 0.3108,5.65008 0.36131,1.05162 1.15903,1.48981 2.721007,1.49466 l 1.18104,0.004 v 2.33164 c 0,1.86524 -0.0822,2.39988 -0.41104,2.67278 -0.47274,0.39233 -3.750157,0.54982 -4.976497,0.23911 z m 114.380631,-0.29116 c -1.852547,-0.71244 -3.355287,-2.1443 -4.203757,-4.00548 -0.71392,-1.56602 -0.71506,-1.57666 -0.72421,-6.78993 -0.009,-5.13087 0.002,-5.24568 0.64603,-6.61881 1.79902,-3.83676 5.634617,-5.85381 9.853794,-5.18187 4.550167,0.72467 7.027817,4.44283 7.016327,10.52926 -0.002,1.10953 -0.10081,2.17048 -0.21938,2.35764 -0.16749,0.2644 -1.44204,0.36952 -5.714917,0.47133 l -5.499337,0.13105 v 0.80294 c 0,2.0595 0.80211,3.41033 2.18161,3.67405 0.996117,0.19042 2.225477,-0.42678 2.804357,-1.40791 0.49703,-0.8424 0.55236,-0.86478 2.54737,-1.03012 1.121617,-0.0929 2.374967,-0.13053 2.785227,-0.0835 0.72073,0.0826 0.74451,0.12602 0.70412,1.2846 -0.0899,2.57862 -2.19614,5.2757 -4.711047,6.03258 -1.78022,0.53576 -5.878527,0.44473 -7.466187,-0.16584 z m 6.338547,-14.57204 c -0.11438,-2.2097 -1.89148,-3.39555 -3.791297,-2.52993 -0.65573,0.29877 -1.3927,1.78872 -1.3927,2.81563 0,0.67246 0.36957,0.75963 3.554577,0.83842 l 1.68977,0.0418 z m -166.59907,14.53033 c -0.34486,-0.27397 -0.40829,-2.03888 -0.53531,-14.89546 -0.13444,-13.60972 -0.11562,-14.59699 0.28156,-14.76907 0.23409,-0.10143 2.9431,-0.26106 6.02003,-0.35473 7.54997,-0.22985 9.55744,0.20812 11.533077,2.51619 1.73104,2.02236 2.42092,5.12552 1.80074,8.09998 -0.47911,2.29775 -1.12596,3.51824 -2.510727,4.73716 l -1.13245,0.99682 0.85228,0.85228 c 1.096287,1.09628 1.728847,3.18042 2.372297,7.81624 0.26836,1.93342 0.55897,3.79836 0.64579,4.14429 0.23896,0.95207 -0.48644,1.19827 -3.383517,1.14835 -3.51881,-0.0606 -3.3664,0.13667 -4.11968,-5.33304 -0.86429,-6.2758 -1.48692,-7.32887 -4.33322,-7.32887 h -1.30668 l 0.16474,6.04122 c 0.12442,4.5621 0.0916,6.11444 -0.13436,6.34032 -0.41902,0.41903 -5.68487,0.40912 -6.21457,-0.0117 z m 10.6687,-17.75788 c 1.19798,-0.56849 1.80879,-1.65362 1.80993,-3.21547 0.002,-2.30182 -1.35062,-3.59712 -3.80296,-3.64264 -1.87914,-0.0348 -2.33208,0.17978 -2.52265,1.1956 -0.17518,0.9338 -0.1516,5.5836 0.0299,5.89125 0.21739,0.36853 3.58948,0.19658 4.4858,-0.22874 z m 42.504569,17.8822 c -0.0619,-0.10256 -0.15248,-5.04231 -0.20116,-10.97722 -0.10243,-12.48837 -0.45324,-11.16749 2.973687,-11.19646 2.43898,-0.0206 3.0295,0.21673 3.0295,1.21767 v 0.72036 l 1.254617,-0.84431 c 1.36898,-0.92126 2.34106,-1.19044 3.85344,-1.06709 l 0.983617,0.0803 0.0713,2.58915 c 0.0392,1.42403 -0.0191,2.67961 -0.12973,2.79019 -0.11056,0.11056 -0.942427,0.30602 -1.848597,0.43435 -1.96036,0.27762 -2.74102,0.73619 -3.35517,1.97088 -0.4081,0.82046 -0.45654,1.61125 -0.45654,7.45338 0,5.53867 -0.0568,6.57155 -0.372947,6.77164 -0.43952,0.27824 -5.637557,0.32953 -5.802037,0.0572 z m 52.9115,-0.16146 c -0.4593,-0.33585 -0.47608,-0.86079 -0.48265,-15.1049 l -0.007,-14.75696 h 3.1080027 3.108 l -0.0765,3.85391 c -0.04201,2.11968 -0.01034,4.2103 0.07039,4.64585 l 0.146836,0.7919 1.1728167,-0.60685 c 3.78926797,-1.9607 7.9559907,-1.08003 9.5022496,2.00838 0.6179008,1.23416 0.6225608,1.29485 0.7838308,10.1926 0.12036,6.64043 0.0882,8.99821 -0.12432,9.13372 -0.5211401,0.33222 -5.88518943,0.22448 -5.99990343,-0.12051 -0.05685,-0.17093 -0.193183,-3.85438 -0.302993,-8.18542 l -0.199657,-7.87462 -0.621602,-0.66431 c -0.52647197,-0.56263 -0.77025097,-0.64457 -1.59293697,-0.53542 -0.639233,0.0848 -1.234325,0.39172 -1.740489,0.89763 l -0.7691327,0.76875 -0.064,7.39266 c -0.03515,4.06596 -0.121228,7.6444 -0.19122,7.95208 -0.121846,0.53568 -0.23596,0.55946 -2.685708,0.55946 -1.799974,0 -2.6995337,-0.10316 -3.0343037,-0.34795 z M 9.2361448,237.3761 c -0.40554,-0.75778 -0.35809,-21.39221 0.0495,-21.51918 0.6786199,-0.21143 5.7993962,-0.37602 6.0755932,-0.19528 0.21849,0.14297 0.30786,3.02102 0.34557,11.12829 l 0.0508,10.93545 -3.130097,0.0695 c -2.8951463,0.0643 -3.1497162,0.0329 -3.3914062,-0.41878 z m 9.2367432,0.17523 c -0.22277,-0.22277 -0.29836,-2.99647 -0.29836,-10.94797 0,-9.40628 0.0451,-10.66694 0.38679,-10.79805 0.21274,-0.0816 1.47148,-0.16204 2.797207,-0.17867 l 2.41041,-0.0302 0.34715,0.78826 0.34715,0.78824 0.93135,-0.58793 c 3.022417,-1.90797 7.120534,-1.71914 9.115894,0.42001 0.30102,0.32271 0.80452,1.14478 1.11889,1.82685 0.56233,1.22001 0.57158,1.383 0.57158,10.06683 v 8.82674 l -2.92466,0.0701 -2.924667,0.0701 -0.2455,-0.6457 c -0.13823,-0.36355 -0.25024,-3.54499 -0.25632,-7.28065 -0.0119,-7.33515 -0.15261,-8.62265 -1.01839,-9.32372 -0.74469,-0.60301 -2.26304,-0.43456 -3.090577,0.34288 -1.13667,1.06783 -1.23207,1.84066 -1.14274,9.25695 0.0619,5.13796 0.007,7.00383 -0.21692,7.27272 -0.38947,0.46929 -5.448097,0.5235 -5.908287,0.0634 z M 10.972571,213.6684 c -1.7765862,-0.63872 -2.5192962,-2.93223 -1.4940762,-4.61378 1.3086862,-2.14651 5.1654262,-1.91419 6.1192332,0.36859 0.9251,2.21408 -0.26268,4.1621 -2.704927,4.43617 -0.58223,0.0653 -1.44634,-0.0206 -1.92023,-0.19098 z"
         id="path31-1" /><path
         style="display:inline;fill:#000000"
         d="m -118.00905,69.260381 35.479668,0.0031 108.256687,0.04075 c 7.059134,0.0027 15.268341,5.640443 20.302078,11.07124 2.911907,3.14159 4.232877,5.279987 5.852897,9.474774 2.543097,6.584917 3.129597,13.266745 1.824997,20.791835 -1.767157,10.19322 -6.334757,18.08717 -14.067571,24.31226 -1.05503,0.84932 -1.91823,1.63553 -1.91823,1.74713 0,0.1116 0.56555,0.66 1.25677,1.21867 6.518077,5.26816 10.096154,10.20167 11.782464,16.24589 0.52422,1.87894 0.56313,2.85598 0.73242,18.38855 0.21571,19.7918 0.0853,18.89694 3.685787,25.28404 0.73039,1.29565 1.32798,2.47222 1.32798,2.6146 0,0.14238 -0.26058,0.50163 -0.57906,0.79834 -0.57766,0.53817 -0.67912,0.53947 -42.134886,0.538 -26.689812,-9.5e-4 -41.894123,-0.0955 -42.501503,-0.26418 -0.52013,-0.14449 -1.2345,-0.56986 -1.5875,-0.94527 -0.63127,-0.67135 -0.64314,-0.77383 -0.72301,-6.24158 -0.097,-6.63923 -0.13881,-6.51976 2.58466,-7.3793 1.02148,-0.32239 1.99356,-0.75043 2.16019,-0.95121 0.21604,-0.26031 0.3347,-4.40632 0.413567,-14.44987 0.0608,-7.74665 0.16503,-14.34887 0.23156,-14.67159 0.0875,-0.42447 0.68553,-0.8583 2.16223,-1.56857 2.42997,-1.16876 5.460127,-1.52783 6.835327,-0.80996 1.299427,0.67832 1.970077,1.5892 7.9299037,10.7705 6.2083667,9.5642 8.54320667,12.83165 10.7477634,15.04079 2.7453949,2.75111 6.0087557,3.72333 9.4815919,2.82478 2.00432,-0.51859 9.905144,-3.54257 11.641664,-4.45575 0.97789,-0.51424 1.35608,-0.94808 2.11666,-2.4281 0.872057,-1.69692 0.925517,-1.95006 0.916817,-4.34133 -0.008,-2.10157 -0.11072,-2.73226 -0.597917,-3.65837 -0.90778,-1.72563 -1.70362,-2.00984 -5.053227,-1.80463 -4.28765,0.26269 -3.7843,0.76709 -12.1989932,-12.2247 -6.7897457,-10.48298 -6.8530857,-10.58892 -6.8676857,-11.48677 -0.0197,-1.21113 0.24254,-1.50732 2.9021199,-3.27787 8.922082,-5.93968 14.329819,-13.16778 16.022579,-21.41617 0.370937,-1.80752 0.350097,-6.64494 -0.0364,-8.45356 -0.86777,-4.0604 -3.86837,-8.32275 -7.325857,-10.406378 -4.0271662,-2.42693 -9.4925419,-3.29723 -16.1200786,-2.56695 -7.2500234,0.79888 -24.2245144,6.211708 -44.3355424,14.137698 l -4.82865,1.90302 v 7.41993 7.41992 l 1.52136,-0.20906 c 2.96269,-0.40714 3.45244,-0.15972 3.793837,1.91664 0.11523,0.70079 0.2166,16.99942 0.22528,36.21918 l 0.0158,34.94502 -0.682727,0.64144 -1.10547,0.629 -69.11388,0.2289 z m 92.055588,64.995779 c 0.0957,-3.38336 0.174217,-8.5003 0.174547,-11.37098 6e-4,-5.12235 0.0117,-5.22656 0.59593,-5.60308 0.81718,-0.52664 8.839457,-2.93127 13.030714,-3.90589 2.6880567,-0.62507 4.0754867,-0.80229 6.3499967,-0.81111 4.2944667,-0.0166 5.83006667,0.7695 6.66271337,3.41097 0.38264003,1.21387 0.39825003,1.64061 0.11605,3.17218 -1.1187267,6.07156 -7.38882337,12.39095 -17.09750707,17.2319 -3.11597,1.55369 -9.068187,4.02757 -9.690437,4.02757 -0.240797,0 -0.274577,-1.46307 -0.142007,-6.15156 z m -67.854984,58.4873 c 0.47496,-0.1471 1.43935,-1.93677 1.79796,-3.33659 0.52673,-2.05603 0.0302,-4.33761 -1.39301,-6.40086 -0.49708,-0.72063 -0.49708,-0.72063 -6.148697,-0.72063 -5.651607,0 -5.651607,0 -6.135537,0.48392 -1.67441,1.67441 -2.15087,5.52944 -1.01093,8.17931 0.61072,1.41966 0.91309,1.60302 2.82867,1.71522 2.41286,0.14134 9.676714,0.19883 10.061544,0.0796 z m 0.61718,-26.65897 c 1.81494,-2.3795 1.90176,-5.67258 0.22498,-8.53355 -0.54521,-0.93027 -0.79811,-1.1821 -1.28487,-1.27945 -0.33333,-0.0667 -2.875207,-0.12121 -5.648617,-0.12121 -5.749427,0 -5.651087,-0.0257 -6.515717,1.70044 -1.40686,2.80857 -1.04152,6.69475 0.77969,8.29379 0.65501,0.57511 0.65501,0.57511 6.307557,0.57511 5.652537,0 5.652537,0 6.136977,-0.63513 z m -0.5018,-25.43907 c 0,0.49721 1.43935,-1.93677 1.79796,-3.33659 0.52673,-2.05603 0.0302,-4.33761 -1.39301,-6.40086 -0.49708,-0.72063 -0.49708,-0.72063 -6.148697,-0.72063 -5.651607,0 -5.651607,0 -6.135537,0.48392 -1.67441,1.67441 -2.15087,5.52944 -1.01093,8.17931 0.61072,1.41966 0.91309,1.60302 2.82867,1.71522 2.41286,0.14134 10.061544,-0.32328 10.061544,0.0796 z m 0.61718,-26.65897 c 1.81494,-2.3795 1.90176,-5.67258 0.22498,-8.53355 -0.54521,-0.93027 -0.79811,-1.18211 -1.28487,-1.27946 -0.33333,-0.0667 -2.875207,-0.12121 -5.648617,-0.12121 -5.749427,0 -5.651087,-0.0257 -6.515717,1.70045 -1.40686,2.80857 -1.04152,6.69475 0.77969,8.29379 0.65501,0.57511 0.65501,0.57511 6.307557,0.57511 5.652537,0 5.652537,0 6.136977,-0.63513 z m -0.51168,-25.447221 c 0,0.49721 1.43935,-1.93677 1.79796,-3.33659 0.52673,-2.056027 0.0302,-4.337617 -1.39301,-6.400864 -0.49708,-0.72063 -0.49708,-0.72063 -6.148697,-0.72063 -5.651607,0 -5.651607,0 -6.135537,0.48392 -1.67441,1.674407 -2.15087,5.529447 -1.01093,8.179314 0.61072,1.41966 0.91309,1.60302 2.82867,1.71522 2.41286,0.14134 10.061544,-0.32328 10.061544,0.0796 z"
         id="path21" /><path
         id="path34"
         style="fill:url(#linearGradient35)"
         d="m -81.493572,196.94216 c 42.001256,0.0326 88.7651268,0.11867 130.766362,0.008 -1.36284,-2.78072 -2.16808,-5.84458 -2.16263,-8.9505 -0.520337,-8.78083 -0.268257,-17.58545 -0.533887,-26.37534 -0.0608,-2.44472 -0.0763,-4.68387 -0.69414,-7.04773 -0.9128,-2.94322 -2.56436,-5.57316 -4.538987,-7.85835 -1.94112,-2.33478 -4.37297,-4.19674 -6.569777,-6.21751 -1.33793,-1.13524 -2.08545,-2.95754 -1.69419,-4.69832 0.27171,-1.5688 1.33878,-2.87635 2.64898,-3.72239 3.470657,-2.96392 6.912184,-6.14506 9.055374,-10.24141 2.436947,-4.2746 3.920247,-9.06107 4.504667,-13.89366 0.91955,-7.24309 -0.29298,-14.907754 -4.232207,-21.137361 -2.98747,-4.547187 -7.573657,-7.849537 -12.480424,-10.070274 -4.050287,-1.79314 -8.461214,-2.57919 -12.899651,-2.44476 -32.161709,-0.0719 -69.086198,-0.0578 -101.24762,-0.22129 0.026,40.957025 0.0521,81.914055 0.0781,122.871085 z" /><path
         style="fill:#ffffff;fill-opacity:1"
         d="m -28.708212,201.52539 c 0.53981,-0.004 -1.2345,-0.56986 -1.5875,-0.94527 -0.63127,-0.67135 -0.64314,-0.77383 -0.72301,-6.24158 -0.097,-6.63923 -0.13881,-6.51976 2.58466,-7.3793 1.02148,-0.32239 1.99356,-0.75043 2.16019,-0.95121 0.21604,-0.26031 0.3347,-4.40632 0.413567,-14.44987 0.0608,-7.74665 0.16503,-14.34887 0.23156,-14.67159 0.0875,-0.42447 0.68553,-0.8583 2.16223,-1.56857 2.42997,-1.16876 5.460127,-1.52783 6.835327,-0.80996 1.299427,0.67832 1.970077,1.5892 7.9299037,10.7705 6.2083667,9.5642 8.54320667,12.83165 10.7477634,15.04079 2.7453949,2.75111 6.0087557,3.72333 9.4815919,2.82478 2.00432,-0.51859 9.905144,-3.54257 11.641664,-4.45575 0.97789,-0.51424 1.35608,-0.94808 2.11666,-2.4281 0.872057,-1.69692 0.925517,-1.95006 0.916817,-4.34133 -0.008,-2.10157 -0.11072,-2.73226 -0.597917,-3.65837 -0.90778,-1.72563 -1.70362,-2.00984 -5.053227,-1.80463 -4.28765,0.26269 -3.7843,0.76709 -12.1989932,-12.2247 -6.7897457,-10.48298 -6.8530857,-10.58892 -6.8676857,-11.48677 -0.0197,-1.21113 0.24254,-1.50732 2.9021199,-3.27787 8.922082,-5.93968 14.329819,-13.16778 16.022579,-21.41617 0.370937,-1.80752 0.350097,-6.64494 -0.0364,-8.45356 -0.86777,-4.0604 -3.86837,-8.32275 -7.325857,-10.406367 -4.0271662,-2.42693 -9.4925419,-3.29723 -16.1200786,-2.56695 -7.2500234,0.79888 -24.2245144,6.211697 -44.3355424,14.137687 l -4.82865,1.90302 v 7.41993 7.41992 l 1.52136,-0.20906 c 2.96269,-0.40714 3.45244,-0.15972 3.793837,1.91664 0.11523,0.70079 0.2166,16.99942 0.22528,36.21918 l 0.0158,34.94502 -0.682727,0.64144 -0.68273,0.64143 z m 2.75475,-67.26923 c 0.0957,-3.38336 0.174217,-8.5003 0.174547,-11.37098 6e-4,-5.12235 0.0117,-5.22656 0.59593,-5.60308 0.81718,-0.52664 8.839457,-2.93127 13.030714,-3.90589 2.6880567,-0.62507 4.0754867,-0.80229 6.3499967,-0.81111 4.2944667,-0.0166 5.83006667,0.7695 6.66271337,3.41097 0.38264003,1.21387 0.39825003,1.64061 0.11605,3.17218 -1.1187267,6.07156 -7.38882337,12.39095 -17.09750707,17.2319 -3.11597,1.55369 -9.068187,4.02757 -9.690437,4.02757 -0.240797,0 -0.274577,-1.46307 -0.142007,-6.15156 z"
         id="path33" /><text
         xml:space="preserve"
         style="font-style:normal;font-variant:normal;font-weight:bold;font-stretch:normal;font-size:8.46667px;font-family:'DejaVu Sans';-inkscape-font-specification:'DejaVu Sans Bold';text-align:start;writing-mode:tb-rl;direction:ltr;text-anchor:start;fill:#b99616;fill-opacity:1;stroke:none;stroke-width:2;stroke-dasharray:none;stroke-opacity:1"
         x="-113.15405"
         y="81.471786"
         id="text35"><tspan
           id="tspan35"
           style="font-size:8.46667px;writing-mode:tb-rl;fill:#b99616;fill-opacity:1;stroke:none;stroke-width:2"
           x="-113.15405"
           y="81.471786">25A</tspan></text></g></g></svg>
